<?xml version="1.0" encoding="UTF-8" standalone="no"?>
<svg
   xmlns:dc="http://purl.org/dc/elements/1.1/"
   xmlns:cc="http://creativecommons.org/ns#"
   xmlns:rdf="http://www.w3.org/1999/02/22-rdf-syntax-ns#"
   xmlns:svg="http://www.w3.org/2000/svg"
   xmlns="http://www.w3.org/2000/svg"
   xmlns:sodipodi="http://sodipodi.sourceforge.net/DTD/sodipodi-0.dtd"
   xmlns:inkscape="http://www.inkscape.org/namespaces/inkscape"
   fill="#000000"
   height="24"
   viewBox="0 0 24 24"
   width="24"
   id="svg2"
   version="1.1"
   inkscape:version="0.91 r13725"
   sodipodi:docname="ic_launcher.svg"
   inkscape:export-filename="E:\Downloads\ic_vpn_key_black_24px.png"
   inkscape:export-xdpi="900"
   inkscape:export-ydpi="900">
  <metadata
     id="metadata12">
    <rdf:RDF>
      <cc:Work
         rdf:about="">
        <dc:format>image/svg+xml</dc:format>
        <dc:type
           rdf:resource="http://purl.org/dc/dcmitype/StillImage" />
        <dc:title></dc:title>
      </cc:Work>
    </rdf:RDF>
  </metadata>
  <defs
     id="defs10" />
  <sodipodi:namedview
     pagecolor="#ffffff"
     bordercolor="#666666"
     borderopacity="1"
     objecttolerance="10"
     gridtolerance="10"
     guidetolerance="10"
     inkscape:pageopacity="0"
     inkscape:pageshadow="2"
     inkscape:window-width="1366"
     inkscape:window-height="712"
     id="namedview8"
     showgrid="false"
     inkscape:snap-bbox="false"
     inkscape:snap-page="true"
     inkscape:zoom="6.9532167"
     inkscape:cx="0.70160516"
     inkscape:cy="20.020531"
     inkscape:window-x="-4"
     inkscape:window-y="-4"
     inkscape:window-maximized="1"
     inkscape:current-layer="svg2" />
  <rect
     style="opacity:1;fill:#ffffff;fill-opacity:1;stroke:none;stroke-width:1;stroke-miterlimit:4;stroke-dasharray:none;stroke-dashoffset:0;stroke-opacity:1"
     id="rect4140-0"
     width="24"
     height="24"
     x="-0.21186441"
     y="-0.093220338" />
  <path
     sodipodi:type="star"
     style="opacity:1;fill:#dcdcdc;fill-opacity:1;stroke:none;stroke-width:0.5;stroke-miterlimit:4;stroke-dasharray:none;stroke-dashoffset:0;stroke-opacity:1"
     id="path4176"
     sodipodi:sides="3"
     sodipodi:cx="18.736027"
     sodipodi:cy="18.848198"
     sodipodi:r1="20.142754"
     sodipodi:r2="3.3592038"
     sodipodi:arg1="-1.3296786"
     sodipodi:arg2="-0.2824811"
     inkscape:flatsided="true"
     inkscape:rounded="0"
     inkscape:randomized="0"
     d="M 23.545878,-0.71185967 33.270608,32.79368 -0.60840564,24.462773 Z"
     inkscape:transform-center-x="0.67972429"
     inkscape:transform-center-y="-0.055513319"
     transform="matrix(0.95111002,0.02978389,-0.02978389,0.95111002,1.1689156,0.40295069)" />
  <rect
     style="opacity:1;fill:none;fill-opacity:1;stroke:#000000;stroke-width:1;stroke-miterlimit:4;stroke-dasharray:none;stroke-dashoffset:0;stroke-opacity:1"
     id="rect4140"
     width="24"
     height="24"
     x="0"
     y="0" />
  <path
     d="M0 0h24v24H0z"
     fill="none"
     id="path4" />
  <path
     d="M 14.348506,8.5612968 C 14.308319,7.2722164 13.46716,6.0905433 12.168207,5.6784187 10.520878,5.1557622 8.7573538,6.0697718 8.2346976,7.7171017 7.7120414,9.3644318 8.6260512,11.127955 10.273381,11.650612 c 1.298952,0.412124 2.667505,-0.06846 3.443517,-1.098585 l 2.16492,0.686875 -0.631609,1.990731 1.990731,0.631609 0.631609,-1.99073 0.995365,0.315803 0.631609,-1.99073 -5.151017,-1.6342882 z m -3.443516,1.098583 c -0.547451,-0.173692 -0.853254,-0.763718 -0.679561,-1.31117 0.173692,-0.54745 0.763718,-0.8532526 1.311169,-0.6795603 0.547452,0.1736923 0.853255,0.7637183 0.679562,1.3111693 -0.173692,0.547451 -0.763719,0.853253 -1.31117,0.679561 z"
     id="path6"
     inkscape:connector-curvature="0"
     style="fill:#ffffff;fill-opacity:1;stroke:#000000;stroke-width:0.52213144;stroke-miterlimit:4;stroke-dasharray:none;stroke-dashoffset:0;stroke-opacity:1" />
  <path
     d="M 9.6739137,15.102629 C 9.6337267,13.813548 8.792568,12.631875 7.493615,12.219751 5.8462858,11.697094 4.0827624,12.611104 3.5601062,14.258434 c -0.5226562,1.64733 0.3913536,3.410853 2.0386833,3.93351 1.2989518,0.412124 2.6675045,-0.06846 3.4435165,-1.098585 l 2.16492,0.686875 -0.631609,1.990731 1.99073,0.631609 0.631609,-1.99073 0.995365,0.315803 0.631609,-1.99073 -5.1510163,-1.634288 z M 6.2303981,16.201212 C 5.6829471,16.02752 5.3771448,15.437494 5.5508372,14.890042 5.7245295,14.342592 6.3145557,14.036789 6.8620067,14.210481 7.409458,14.384174 7.715261,14.9742 7.541568,15.521651 7.367876,16.069102 6.7778492,16.374904 6.2303981,16.201212 Z"
     id="path6-7"
     inkscape:connector-curvature="0"
     style="fill:#ffffff;fill-opacity:1;stroke:#000000;stroke-width:0.52213144;stroke-miterlimit:4;stroke-dasharray:none;stroke-dashoffset:0;stroke-opacity:1" />
</svg>
